<svg width="20" height="18" viewBox="0 0 20 18" fill="none" xmlns="http://www.w3.org/2000/svg">
<path d="M2.5 0.726562L1.79297 2.29883L0 2.46289L1.33203 3.57812L0.957031 5.27344L2.5 4.36328L4.08203 5.27344L3.625 3.57812L5 2.46289L3.20703 2.29688L2.5 0.726562ZM8 2V4H20V2H8ZM2.5 6.72656L1.79297 8.29883L0 8.46289L1.33203 9.57812L0.957031 11.2734L2.5 10.3633L4.08203 11.2734L3.625 9.57812L5 8.46289L3.20703 8.29688L2.5 6.72656ZM8 8V10H20V8H8ZM2.5 12.7266L1.79297 14.2988L0 14.4629L1.33203 15.5781L0.957031 17.2734L2.5 16.3633L4.08203 17.2734L3.625 15.5781L5 14.4629L3.20703 14.2969L2.5 12.7266ZM8 14V16H20V14H8Z" fill="#7B8289"/>
</svg>
