<svg width="22" height="22" viewBox="0 0 22 22" fill="none" xmlns="http://www.w3.org/2000/svg">
<path d="M7.66797 0L7.17578 2.52148C6.34778 2.83448 5.59269 3.2695 4.92969 3.8125L2.50781 2.97852L0.173828 7.02148L2.11328 8.70898V8.71094C2.03728 9.18194 2 9.604 2 10C2 10.396 2.03728 10.819 2.11328 11.291L0.173828 12.9785L2.50781 17.0195L4.92969 16.1855V16.1875C5.59269 16.7305 6.34778 17.1646 7.17578 17.4766L7.66797 20H10.2598C9.55977 18.998 9.11939 17.8066 9.02539 16.5156L8.92578 16.002L7.88281 15.6055C7.25881 15.3705 6.69222 15.0456 6.19922 14.6426L5.33594 13.9297L3.41406 14.5918L2.72852 13.4062L4.26562 12.0703L4.08789 10.9707C4.02889 10.6057 4 10.289 4 10C4 9.711 4.02789 9.39434 4.08789 9.02734L4.26562 7.92773L2.72852 6.59375L3.41406 5.40625L5.33594 6.06836L6.19922 5.35938C6.69222 4.95437 7.25881 4.62858 7.88281 4.39258L8.92578 3.99805L9.31445 2H10.6836L11.0742 3.99805L12.1172 4.39453C12.7412 4.62953 13.3078 4.95442 13.8008 5.35742L14.6641 6.07031L16.5859 5.4082L17.2715 6.59375L15.7344 7.92969L15.9082 9.00586C15.9382 9.00386 15.969 9 16 9C16.681 9 17.337 9.1022 17.959 9.2832C17.941 9.0982 17.9197 8.90998 17.8867 8.70898L19.8262 7.02148L17.4902 2.98047L15.0703 3.8125C14.4073 3.2695 13.6522 2.83348 12.8242 2.52148L12.332 0H7.66797ZM10 6C7.794 6 6 7.794 6 10C6 11.97 7.4345 13.6017 9.3125 13.9297C9.5315 13.2207 9.86225 12.5637 10.2812 11.9707C10.1882 11.9847 10.096 12 10 12C8.897 12 8 11.103 8 10C8 8.897 8.897 8 10 8C11.103 8 12 8.897 12 10C12 10.096 11.9857 10.1892 11.9727 10.2812C12.5657 9.86325 13.2226 9.52955 13.9316 9.31055C13.6026 7.43355 11.97 6 10 6ZM16 11C13.2 11 11 13.2 11 16C11 18.8 13.2 21 16 21C17 21 18.0008 20.6992 18.8008 20.1992L20.5996 22L22 20.5996L20.1992 18.8008C20.6992 18.0008 21 17 21 16C21 13.2 18.8 11 16 11ZM16 13C17.7 13 19 14.3 19 16C19 17.7 17.7 19 16 19C14.3 19 13 17.7 13 16C13 14.3 14.3 13 16 13Z" fill="#7B8289"/>
</svg>
