<svg width="24" height="22" viewBox="0 0 24 22" fill="none" xmlns="http://www.w3.org/2000/svg">
<path d="M2.00008 -2.2063e-05C1.86757 -0.00189611 1.73601 0.0225852 1.61304 0.0719989C1.49007 0.121413 1.37815 0.194773 1.28378 0.287818C1.18941 0.380862 1.11447 0.491735 1.06333 0.613992C1.01218 0.736249 0.98584 0.867453 0.98584 0.999978C0.98584 1.1325 1.01218 1.26371 1.06333 1.38596C1.11447 1.50822 1.18941 1.61909 1.28378 1.71214C1.37815 1.80518 1.49007 1.87854 1.61304 1.92796C1.73601 1.97737 1.86757 2.00185 2.00008 1.99998H12.0001V7.99998C10.907 7.99998 10.0001 8.90691 10.0001 9.99998V12H2.00008C1.86757 11.9981 1.73601 12.0226 1.61304 12.072C1.49007 12.1214 1.37815 12.1948 1.28378 12.2878C1.18941 12.3809 1.11447 12.4917 1.06333 12.614C1.01218 12.7362 0.98584 12.8675 0.98584 13C0.98584 13.1325 1.01218 13.2637 1.06333 13.386C1.11447 13.5082 1.18941 13.6191 1.28378 13.7121C1.37815 13.8052 1.49007 13.8785 1.61304 13.928C1.73601 13.9774 1.86757 14.0019 2.00008 14H10.0001V20C10.0001 21.093 10.907 22 12.0001 22H22.0001C22.1326 22.0019 22.2642 21.9774 22.3871 21.928C22.5101 21.8785 22.622 21.8052 22.7164 21.7121C22.8108 21.6191 22.8857 21.5082 22.9368 21.386C22.988 21.2637 23.0143 21.1325 23.0143 21C23.0143 20.8675 22.988 20.7362 22.9368 20.614C22.8857 20.4917 22.8108 20.3809 22.7164 20.2878C22.622 20.1948 22.5101 20.1214 22.3871 20.072C22.2642 20.0226 22.1326 19.9981 22.0001 20H12.0001V13.1679C12.0179 13.06 12.0179 12.9498 12.0001 12.8418V9.99998H12.8321C12.9401 10.0178 13.0503 10.0178 13.1583 9.99998H22.0001C22.1326 10.0019 22.2642 9.97737 22.3871 9.92796C22.5101 9.87854 22.622 9.80518 22.7164 9.71214C22.8108 9.61909 22.8857 9.50822 22.9368 9.38596C22.988 9.26371 23.0143 9.1325 23.0143 8.99998C23.0143 8.86745 22.988 8.73625 22.9368 8.61399C22.8857 8.49173 22.8108 8.38086 22.7164 8.28782C22.622 8.19477 22.5101 8.12141 22.3871 8.072C22.2642 8.02258 22.1326 7.9981 22.0001 7.99998H14.0001V1.99998C14.0001 0.906915 13.0931 -2.2063e-05 12.0001 -2.2063e-05H2.00008ZM6.00008 3.99998V5.99998H2.00008C1.86757 5.9981 1.73601 6.02258 1.61304 6.072C1.49007 6.12141 1.37815 6.19477 1.28378 6.28782C1.18941 6.38086 1.11447 6.49173 1.06333 6.61399C1.01218 6.73625 0.98584 6.86745 0.98584 6.99998C0.98584 7.1325 1.01218 7.26371 1.06333 7.38596C1.11447 7.50822 1.18941 7.61909 1.28378 7.71214C1.37815 7.80518 1.49007 7.87854 1.61304 7.92796C1.73601 7.97737 1.86757 8.00185 2.00008 7.99998H6.00008V9.99998L9.00008 6.99998L6.00008 3.99998ZM18.0001 12L15.0001 15L18.0001 18V16H22.0001C22.1326 16.0019 22.2642 15.9774 22.3871 15.928C22.5101 15.8785 22.622 15.8052 22.7164 15.7121C22.8108 15.6191 22.8857 15.5082 22.9368 15.386C22.988 15.2637 23.0143 15.1325 23.0143 15C23.0143 14.8675 22.988 14.7362 22.9368 14.614C22.8857 14.4917 22.8108 14.3809 22.7164 14.2878C22.622 14.1948 22.5101 14.1214 22.3871 14.072C22.2642 14.0226 22.1326 13.9981 22.0001 14H18.0001V12Z" fill="#7B8289"/>
</svg>
